<?xml version="1.0" standalone="no"?>
<!DOCTYPE svg PUBLIC "-//W3C//DTD SVG 20010904//EN"
 "http://www.w3.org/TR/2001/REC-SVG-20010904/DTD/svg10.dtd">
<svg version="1.0" xmlns="http://www.w3.org/2000/svg"
 width="512.000000pt" height="512.000000pt" viewBox="0 0 512.000000 512.000000"
 preserveAspectRatio="xMidYMid meet">
<metadata>
Created by potrace 1.14, written by Peter Selinger 2001-2017
</metadata>
<g transform="translate(0.000000,512.000000) scale(0.100000,-0.100000)"
fill="#000000" stroke="none">
<path d="M1615 5108 c-27 -4 -70 -10 -95 -14 -208 -28 -491 -138 -685 -264
-368 -241 -638 -600 -759 -1010 -88 -297 -97 -634 -27 -945 39 -171 149 -423
253 -580 227 -342 579 -608 965 -729 84 -26 195 -53 248 -61 17 -3 56 -9 87
-13 88 -14 332 -12 449 3 259 33 545 135 742 266 32 22 62 39 67 39 5 0 95
-86 200 -191 l191 -192 -36 -35 c-21 -22 -35 -45 -35 -61 0 -20 125 -150 608
-632 607 -607 630 -627 736 -666 56 -20 191 -25 252 -9 119 32 229 115 282
214 84 157 80 319 -9 467 -19 31 -260 280 -628 648 -472 472 -603 597 -623
597 -15 0 -38 -14 -60 -35 l-35 -36 -192 191 c-105 105 -191 195 -191 200 0 5
18 36 40 69 22 33 40 63 40 66 0 4 8 19 18 33 28 40 108 226 137 317 62 195
84 362 80 590 -2 99 -6 196 -10 215 -17 101 -28 150 -42 200 -8 30 -16 62 -18
70 -8 39 -52 154 -91 239 -241 519 -707 895 -1259 1017 -178 40 -459 55 -600
32z m435 -123 c243 -33 507 -134 709 -270 420 -281 679 -701 750 -1215 9 -64
7 -385 -2 -425 -3 -11 -8 -40 -12 -65 -3 -25 -18 -88 -31 -140 -91 -353 -287
-653 -584 -896 -232 -189 -512 -311 -820 -357 -89 -14 -414 -16 -465 -4 -11 3
-40 8 -65 12 -442 69 -871 351 -1132 744 -135 204 -242 496 -266 731 -14 129
-5 438 13 493 2 7 6 28 9 47 14 97 86 300 152 433 105 209 297 439 474 570 36
27 72 54 80 60 8 7 47 31 85 53 224 132 446 207 680 230 33 3 62 7 64 9 5 6
310 -3 361 -10z m1423 -3337 l-141 -141 -183 184 -184 183 140 140 140 141
184 -184 184 -183 -140 -140z m899 -427 c644 -644 623 -618 623 -766 0 -136
-63 -238 -183 -297 -59 -29 -76 -33 -147 -33 -149 1 -122 -21 -767 623 -312
312 -567 571 -565 575 3 11 460 467 467 467 3 0 260 -256 572 -569z"/>
<path d="M775 4123 c-11 -3 -28 -12 -39 -22 -47 -42 -46 -25 -46 -799 0 -810
-2 -783 65 -815 33 -16 111 -17 1066 -17 1143 0 1081 -4 1113 65 14 29 16 119
16 767 0 566 -3 739 -13 758 -7 13 -28 35 -46 47 l-34 23 -1031 -1 c-567 -1
-1040 -4 -1051 -6z m2055 -725 c-1 -479 -3 -609 -13 -593 -6 11 -63 119 -127
240 -118 225 -142 255 -185 239 -16 -6 -93 -121 -324 -477 -42 -65 -83 -128
-91 -139 -14 -18 -23 -5 -155 224 -77 133 -145 252 -151 263 -69 126 -187 320
-201 331 -36 26 -56 11 -203 -156 -116 -132 -242 -274 -279 -315 -20 -22 -85
-96 -146 -165 -60 -69 -118 -134 -127 -144 -17 -19 -18 11 -18 642 l0 662
1010 0 1010 0 0 -612z m-1180 -254 c0 -2 17 -32 38 -66 21 -35 52 -88 69 -118
17 -30 69 -122 117 -204 47 -82 86 -153 86 -158 0 -4 -241 -8 -536 -8 l-536 0
27 33 c15 17 44 50 64 72 20 22 70 78 111 125 41 47 79 90 84 96 6 6 24 26 40
45 35 40 169 192 176 199 3 3 38 42 79 88 l74 83 53 -92 c30 -50 54 -93 54
-95z m1007 -296 l131 -253 -295 -3 c-163 -1 -298 0 -300 2 -3 2 39 71 92 153
53 81 127 194 163 250 37 57 69 103 72 103 3 0 65 -114 137 -252z"/>
</g>
</svg>
